:SAMPLES-PER-SECOND 30
:FULLY-SPECIFIED
:DEGREES
566
root  -15.8537 38.8888 -14.2084 -170.954 -84.7654 163.293
RightUpLeg  -16.7511 -13.6431 -9.5506
RightLeg  12.1809 3.82523 2.02405
RightFoot  8.31925 -1.13645 6.90396
RightToes  0.000482159 0.542163 -0.142577
Spine  15.0638 0.239621 4.67103
Spine1  8.6045 1.77799 -3.90968
HEad  7.85985 14.2663 -7.64285
LeftShoulder1  6.84362 -10.2729 -43.1873
LeftArm  -15.7913 18.5638 -27.9344
LeftForeArm  37.4145 -38.9142 -6.70835
LeftHand  -0.25398 0.0180481 5.50724
RightShoulder  5.13966 8.75828 35.9345
RightArm  -9.02487 -22.0216 34.7933
RightForeArm  17.1224 10.9268 5.78389
RightHand  -0.505488 0.0229362 -10.8738
LeftUpLeg  12.7773 0.398605 1.01143
LeftLeg  23.5648 5.24033 2.86031
LeftFoot  -21.5857 -0.47742 -6.94801
LeftToes  1.06246e-005 4.65854e-005 -8.18502e-006
567
root  -17.2533 38.745 -14.9089 170.053 -85.9486 -178.199
RightUpLeg  -17.1466 -16.1175 -7.22628
RightLeg  18.5868 6.17891 2.14391
RightFoot  7.46985 -0.849897 5.37853
RightToes  0.000482159 0.542163 -0.142577
Spine  15.9292 -0.211072 7.08186
Spine1  8.70876 1.82408 -3.98738
HEad  8.1626 14.8101 -7.95107
LeftShoulder1  6.96871 -10.4383 -43.4723
LeftArm  -16.3605 19.3153 -27.5476
LeftForeArm  37.8615 -40.4558 -7.12366
LeftHand  -0.25398 0.0180481 5.50724
RightShoulder  5.28674 8.91641 36.5704
RightArm  -11.1514 -19.792 33.8956
RightForeArm  18.1411 8.53204 5.39045
RightHand  -0.501279 -0.067275 -10.9408
LeftUpLeg  10.912 -2.40097 2.6348
LeftLeg  32.1965 7.46277 5.47068
LeftFoot  -17.7929 -0.537312 -11.5144
LeftToes  1.06246e-005 4.65854e-005 -8.18502e-006
568
root  -18.5607 38.7209 -15.5732 137.12 -86.8196 -145.241
RightUpLeg  -16.925 -16.7256 -5.47541
RightLeg  23.4855 5.04773 2.15386
RightFoot  2.90901 -0.381451 3.21392
RightToes  0.000482159 0.542163 -0.142577
Spine  15.9779 -0.569135 9.29479
Spine1  9.27676 1.85346 -3.36222
HEad  8.73958 14.8271 -8.10666
LeftShoulder1  7.08323 -10.61 -43.6608
LeftArm  -15.9913 19.4174 -27.6995
LeftForeArm  37.9055 -40.639 -7.17701
LeftHand  -0.25398 0.0180481 5.50724
RightShoulder  5.34159 9.02822 36.6264
RightArm  -12.1382 -17.4065 33.4819
RightForeArm  16.1165 7.34964 5.17457
RightHand  -0.560149 0.0605586 -11.9476
LeftUpLeg  5.75298 -3.84062 4.41304
LeftLeg  43.6622 9.96463 10.4475
LeftFoot  -8.36758 0.211615 -9.20183
LeftToes  1.06246e-005 4.65854e-005 -8.18502e-006
569
root  -19.7929 38.7071 -16.1919 95.2668 -86.5216 -103.147
RightUpLeg  -16.0378 -17.4557 -3.73188
RightLeg  26.5898 3.18657 1.50138
RightFoot  -1.2691 -0.198967 2.20344
RightToes  0.000482159 0.542163 -0.142577
Spine  15.7776 -0.785065 11.3455
Spine1  9.73577 2.00208 -2.5942
HEad  9.61265 14.1808 -7.71127
LeftShoulder1  7.13067 -10.7 -43.6762
LeftArm  -15.1242 19.2701 -28.1937
LeftForeArm  37.9835 -40.4063 -7.10376
LeftHand  -0.25398 0.0180481 5.50724
RightShoulder  5.34214 9.07875 36.4638
RightArm  -12.0686 -15.0315 33.0766
RightForeArm  13.6248 7.47484 5.40325
RightHand  -0.665232 0.495024 -13.1813
LeftUpLeg  -0.861118 -4.28951 6.01984
LeftLeg  54.0003 9.6444 14.2656
LeftFoot  1.80589 0.225136 -1.86769
LeftToes  1.06246e-005 4.65854e-005 -8.18502e-006
570
root  -21.0109 38.7799 -16.7746 67.4688 -85.6521 -75.3953
RightUpLeg  -14.1349 -18.1582 -2.9574
RightLeg  28.0945 1.94657 0.886605
RightFoot  -3.68928 -0.162542 2.05595
RightToes  0.000482159 0.542163 -0.142577
Spine  15.9379 -0.874186 12.5736
Spine1  9.78624 2.28094 -2.47813
HEad  10.335 13.2308 -6.94673
LeftShoulder1  7.17499 -10.7941 -43.658
LeftArm  -14.3136 19.2972 -28.5607
LeftForeArm  38.5599 -40.3388 -7.04908
LeftHand  -0.25398 0.0180481 5.50724
RightShoulder  5.37347 9.12051 36.5688
RightArm  -11.347 -12.4771 32.4214
RightForeArm  12.0624 8.45151 5.79214
RightHand  -0.837102 1.38183 -14.4643
LeftUpLeg  -6.52253 -3.4895 6.66267
LeftLeg  60.0669 6.81221 13.1028
LeftFoot  6.0432 -0.345623 2.15925
LeftToes  1.06246e-005 4.65854e-005 -8.18502e-006
571
root  -22.2617 39.0528 -17.3251 46.1224 -85.0284 -54.2203
RightUpLeg  -11.2721 -19.277 -3.36704
RightLeg  28.0315 1.56628 0.656265
RightFoot  -5.63979 -0.123572 1.69483
RightToes  0.000482159 0.542163 -0.142577
Spine  16.1046 -0.768521 12.7494
Spine1  9.70684 2.62952 -3.14259
HEad  10.7047 12.3221 -6.50485
LeftShoulder1  7.2728 -10.9777 -43.6953
LeftArm  -13.5944 19.458 -28.7593
LeftForeArm  39.397 -39.9503 -6.88693
LeftHand  -0.25398 0.0180481 5.50724
RightShoulder  5.38341 9.11771 36.6547
RightArm  -10.7047 -9.62757 32.0004
RightForeArm  10.7593 9.59492 6.0347
RightHand  -1.08077 2.51337 -16.0365
LeftUpLeg  -10.7992 -1.41242 5.91096
LeftLeg  61.646 4.3961 9.4217
LeftFoot  5.05295 -0.227602 1.32285
LeftToes  1.06246e-005 4.65854e-005 -8.18502e-006
572
root  -23.5216 39.3725 -17.8179 30.0085 -84.0055 -37.912
RightUpLeg  -8.28444 -21.0661 -3.92078
RightLeg  27.0385 1.44278 0.5467
RightFoot  -7.82956 -0.0936916 1.35152
RightToes  0.000482159 0.542163 -0.142577
Spine  15.7063 -0.458635 12.8707
Spine1  9.7172 3.0664 -3.94886
HEad  11.0595 11.4925 -6.75105
LeftShoulder1  7.3953 -11.1858 -43.809
LeftArm  -12.7383 19.6034 -29.0511
LeftForeArm  39.8008 -38.755 -6.52622
LeftHand  -0.25398 0.0180481 5.50724
RightShoulder  5.27272 9.00872 36.1536
RightArm  -10.4177 -6.71737 32.2195
RightForeArm  8.8478 10.6301 6.14219
RightHand  -1.31739 3.38882 -17.6092
LeftUpLeg  -14.3943 1.47446 4.50692
LeftLeg  59.5087 3.66403 7.24493
LeftFoot  2.66234 0.0715707 -0.691542
LeftToes  1.06246e-005 4.65854e-005 -8.18502e-006
573
root  -24.7787 39.6463 -18.2736 21.0018 -82.6203 -28.3671
RightUpLeg  -5.26333 -22.6177 -4.28098
RightLeg  25.2187 0.888376 0.497863
RightFoot  -9.39794 -0.0910752 1.62617
RightToes  0.000482159 0.542163 -0.142577
Spine  14.9042 0.108653 13.0334
Spine1  9.62572 3.60459 -4.59527
HEad  11.7471 10.6962 -7.24848
LeftShoulder1  7.50118 -11.3297 -44.0166
LeftArm  -11.7912 19.8008 -29.4596
LeftForeArm  39.4205 -37.0083 -6.07423
LeftHand  -0.25398 0.0180481 5.50724
RightShoulder  5.08476 8.84761 35.203
RightArm  -10.0249 -3.96895 32.7017
RightForeArm  6.67588 11.6919 6.21729
RightHand  -1.43314 3.71873 -18.4443
LeftUpLeg  -17.3706 4.97085 2.74663
LeftLeg  54.3317 4.60021 7.29889
LeftFoot  0.716951 0.0567977 -0.557032
LeftToes  1.06246e-005 4.65854e-005 -8.18502e-006
574
root  -26.0167 39.8789 -18.6984 15.1908 -81.0707 -22.0648
RightUpLeg  -2.04748 -22.2014 -4.72694
RightLeg  22.9425 -1.34032 0.703966
RightFoot  -10.1823 -0.0893782 1.97695
RightToes  0.000482159 0.542163 -0.142577
Spine  14.2341 0.757732 13.0176
Spine1  9.39117 4.16635 -5.22526
HEad  12.556 9.87481 -7.46884
LeftShoulder1  7.58662 -11.4337 -44.2184
LeftArm  -11.0353 20.1394 -29.8194
LeftForeArm  38.4637 -35.0747 -5.62812
LeftHand  -0.25398 0.0180481 5.50724
RightShoulder  4.94218 8.74033 34.412
RightArm  -9.13689 -1.26552 32.9002
RightForeArm  5.14282 12.8067 6.2597
RightHand  -1.42518 3.69725 -18.3804
LeftUpLeg  -19.1744 9.07424 0.578413
LeftLeg  46.2695 5.74235 6.81944
LeftFoot  -0.869062 -0.00221841 0.0609428
LeftToes  1.06246e-005 4.65854e-005 -8.18502e-006
575
root  -27.245 40.0454 -19.0658 11.681 -79.4099 -18.3262
RightUpLeg  1.17532 -20.3818 -4.91999
RightLeg  20.9035 -4.77357 1.07292
RightFoot  -11.149 -0.0792157 1.68991
RightToes  0.000482159 0.542163 -0.142577
Spine  13.7756 1.27653 13.2045
Spine1  9.28767 4.74185 -6.09326
HEad  13.0614 9.12243 -7.42615
LeftShoulder1  7.65116 -11.5513 -44.2484
LeftArm  -10.6218 20.5769 -30.0899
LeftForeArm  37.2857 -32.9583 -5.17116
LeftHand  -0.25398 0.0180481 5.50724
RightShoulder  4.88134 8.71238 34.0103
RightArm  -7.8845 1.63975 32.8045
RightForeArm  4.41006 13.8059 6.26212
RightHand  -1.40509 3.73922 -18.0517
LeftUpLeg  -19.4355 14.081 -1.91855
LeftLeg  35.4562 5.26155 4.42365
LeftFoot  -1.87586 0.0889243 -0.957619
LeftToes  1.06246e-005 4.65854e-005 -8.18502e-006
576
root  -28.4895 40.0997 -19.3628 10.2576 -77.8826 -16.8908
RightUpLeg  4.30874 -18.2429 -4.55878
RightLeg  19.2179 -8.37219 1.32937
RightFoot  -12.6468 -0.066826 1.56377
RightToes  0.000482159 0.542163 -0.142577
Spine  13.3127 1.6948 13.7422
Spine1  9.55463 5.40317 -7.23424
HEad  13.1923 8.60027 -7.43418
LeftShoulder1  7.68859 -11.6571 -44.1503
LeftArm  -10.4542 21.0967 -30.2958
LeftForeArm  36.0447 -30.6928 -4.70433
LeftHand  -0.25398 0.0180481 5.50724
RightShoulder  4.87095 8.74496 33.8208
RightArm  -6.49457 4.85362 32.6244
RightForeArm  3.88725 14.5364 6.28813
RightHand  -1.42078 3.90766 -17.9326
LeftUpLeg  -18.6398 21.3265 -4.9771
LeftLeg  23.0731 2.07869 1.71539
LeftFoot  -1.12956 0.312303 -3.33662
LeftToes  1.06246e-005 4.65854e-005 -8.18502e-006
577
root  -29.7596 40.0181 -19.5984 9.83118 -76.4525 -16.5613
RightUpLeg  7.26054 -16.9133 -3.86079
RightLeg  18.0279 -10.9901 1.34201
RightFoot  -14.2135 -0.0324843 2.51551
RightToes  0.000482159 0.542163 -0.142577
Spine  12.7084 2.048 14.2775
Spine1  10.1438 6.03202 -8.23001
HEad  13.2472 8.31861 -7.50978
LeftShoulder1  7.6984 -11.6924 -44.1018
LeftArm  -10.2629 21.7585 -30.4191
LeftForeArm  34.7081 -28.4556 -4.27059
LeftHand  -0.25398 0.0180481 5.50724
RightShoulder  4.89304 8.82875 33.7304
RightArm  -5.09145 8.31293 32.3898
RightForeArm  3.36632 14.8842 6.40452
RightHand  -1.3996 3.86176 -17.7553
LeftUpLeg  -16.6111 24.4374 -6.20171
LeftLeg  10.6434 4.18439 -1.84207
LeftFoot  2.1799 0.796429 -6.75787
LeftToes  1.06246e-005 4.65854e-005 -8.18502e-006
578
root  -31.0811 39.7992 -19.7762 10.2486 -74.6362 -17.1634
RightUpLeg  9.84957 -17.3206 -3.05865
RightLeg  18.0191 -12.0964 1.08249
RightFoot  -15.7968 0.0354387 3.68555
RightToes  0.000482159 0.542163 -0.142577
Spine  11.8099 2.29822 14.697
Spine1  10.6975 6.32733 -8.59982
HEad  13.5116 8.04258 -7.37622
LeftShoulder1  7.67449 -11.656 -44.0685
LeftArm  -9.75546 22.5639 -30.4812
LeftForeArm  33.2778 -26.2245 -3.85718
LeftHand  -0.25398 0.0180481 5.50724
RightShoulder  4.91769 8.89724 33.7102
RightArm  -3.8625 11.675 32.2351
RightForeArm  3.26244 14.9152 6.56941
RightHand  -1.30963 3.50862 -17.276
LeftUpLeg  -12.2159 8.3984 -0.581669
LeftLeg  -0.974345 26.943 -10.0439
LeftFoot  6.40753 1.11115 -7.44986
LeftToes  1.06246e-005 4.65854e-005 -8.18502e-006
